<?xml version="1.0" standalone="no"?>
<!DOCTYPE svg PUBLIC "-//W3C//DTD SVG 20010904//EN"
 "http://www.w3.org/TR/2001/REC-SVG-20010904/DTD/svg10.dtd">
<svg version="1.0" xmlns="http://www.w3.org/2000/svg"
 width="80.000000pt" height="80.000000pt" viewBox="0 0 80.000000 80.000000"
 preserveAspectRatio="xMidYMid meet">
<metadata>
Created by potrace 1.11, written by Peter Selinger 2001-2013
</metadata>
<g transform="translate(0.000000,80.000000) scale(0.100000,-0.100000)"
fill="#000000" stroke="none">
<path d="M1 584 c1 -188 3 -215 16 -210 11 4 13 2 9 -9 -3 -8 -1 -15 4 -15 5
0 12 11 16 25 3 14 11 25 16 25 6 0 8 -10 4 -22 -3 -13 -6 -29 -6 -35 0 -8
-14 -14 -32 -14 -31 -2 -31 -2 7 -8 33 -5 43 -12 57 -40 28 -56 45 -49 43 19
-2 31 -7 66 -13 77 -8 14 -8 30 0 56 10 32 19 39 62 56 28 10 74 22 101 26 43
7 47 9 25 16 -14 4 -46 7 -72 8 -37 1 -53 -4 -73 -23 -15 -14 -33 -22 -40 -20
-14 6 -30 -29 -27 -56 1 -8 -3 -5 -9 7 -12 22 -4 93 9 93 5 0 13 -5 19 -11 11
-11 53 7 53 23 0 4 6 5 13 2 8 -3 27 0 42 6 23 9 26 13 15 20 -13 8 -12 10 2
10 9 0 23 8 30 18 11 16 25 18 83 16 39 -1 72 -3 75 -4 3 -1 13 -2 22 -1 22 3
88 -28 88 -40 0 -5 8 -9 18 -9 16 0 18 8 17 50 -1 28 2 50 7 50 16 0 68 -30
68 -39 0 -10 62 -72 67 -67 7 6 -38 96 -63 126 -25 29 -26 38 -13 90 4 13 -38
15 -319 18 l-323 2 2 -216z m99 -233 c0 -6 -4 -13 -10 -16 -5 -3 -10 1 -10 9
0 9 5 16 10 16 6 0 10 -4 10 -9z"/>
<path d="M502 539 c-49 -10 -48 -16 5 -24 114 -18 143 -14 109 15 -18 14 -70
19 -114 9z"/>
<path d="M754 506 c3 -11 6 -43 6 -70 0 -40 2 -47 14 -37 11 9 15 9 19 -1 3
-7 6 17 6 53 1 64 0 67 -25 72 -22 4 -25 2 -20 -17z"/>
<path d="M532 420 c-27 -17 -31 -24 -26 -46 5 -20 3 -25 -7 -22 -8 3 -15 11
-15 19 -3 32 -7 32 -14 -1 l-7 -35 -13 34 c-13 34 -13 34 -22 11 -6 -16 -4
-34 7 -57 18 -37 23 -41 21 -15 -1 18 13 20 49 7 16 -6 17 -5 5 5 -13 9 -12
11 5 9 36 -3 45 1 45 16 0 8 5 15 10 15 6 0 10 -4 10 -8 0 -5 7 -9 15 -9 8 0
15 4 15 9 0 5 -7 11 -15 14 -8 4 -15 15 -15 25 0 12 5 16 15 13 9 -4 15 0 15
9 0 13 -20 27 -38 27 -4 0 -22 -9 -40 -20z m13 -20 c3 -5 -1 -10 -10 -10 -9 0
-13 5 -10 10 3 6 8 10 10 10 2 0 7 -4 10 -10z"/>
<path d="M172 418 c-7 -7 -12 -17 -12 -24 0 -7 -5 -14 -11 -16 -18 -6 18 -68
39 -67 14 0 14 2 -3 9 -18 8 -18 9 -2 9 11 1 15 5 11 13 -5 8 0 9 17 5 13 -4
38 -7 54 -8 26 0 27 -2 10 -9 l-20 -9 20 0 c11 0 26 3 34 8 8 5 20 7 28 4 14
-6 18 -43 4 -43 -5 0 -11 -9 -14 -20 -4 -17 -1 -19 21 -14 32 8 53 31 45 50
-3 8 0 21 7 29 7 8 9 26 5 44 -8 37 -25 51 -25 21 0 -27 -17 -60 -32 -60 -7 0
-7 4 1 13 13 16 5 27 -21 27 -10 0 -21 7 -25 15 -4 12 -15 14 -48 10 -33 -6
-43 -4 -48 9 -8 19 -19 20 -35 4z m38 -48 c0 -5 -4 -10 -10 -10 -5 0 -10 5
-10 10 0 6 5 10 10 10 6 0 10 -4 10 -10z m100 0 c0 -5 -4 -10 -10 -10 -5 0
-10 5 -10 10 0 6 5 10 10 10 6 0 10 -4 10 -10z"/>
<path d="M790 360 c-2 -19 -3 -21 -7 -7 -4 14 -8 15 -18 7 -15 -12 -9 -44 6
-34 15 9 10 -4 -16 -45 -20 -33 -22 -40 -9 -45 9 -3 19 -6 24 -6 12 0 33 100
27 130 l-4 25 -3 -25z"/>
<path d="M721 303 c-15 -32 -11 -37 17 -17 25 17 28 30 8 37 -8 3 -18 -5 -25
-20z"/>
<path d="M540 300 c0 -5 5 -10 10 -10 6 0 10 5 10 10 0 6 -4 10 -10 10 -5 0
-10 -4 -10 -10z"/>
<path d="M299 229 c-11 -7 -10 -9 4 -9 9 0 17 -5 17 -11 0 -6 8 -8 19 -4 11 3
23 1 27 -6 5 -8 -3 -10 -27 -7 -21 4 -46 -1 -64 -10 l-30 -15 30 -13 c17 -7
46 -10 65 -8 l35 4 -25 -16 -25 -15 32 5 c18 3 35 1 38 -4 3 -6 -2 -10 -12
-11 -16 0 -16 -1 2 -8 11 -5 23 -4 26 2 4 5 22 7 42 3 30 -6 38 -3 47 15 9 15
15 18 23 10 29 -29 38 8 10 42 -12 14 -27 21 -41 19 -13 -2 -31 0 -40 4 -9 4
-21 6 -25 5 -5 -1 -6 3 -2 9 9 14 48 13 64 -2 11 -10 13 -10 7 0 -4 6 -2 12 4
12 6 0 9 4 5 9 -7 12 -188 12 -206 0z m111 -65 c0 -2 -9 -4 -20 -4 -11 0 -20
4 -20 9 0 5 9 7 20 4 11 -3 20 -7 20 -9z"/>
<path d="M682 213 c-6 -16 -14 -39 -18 -53 -4 -13 -29 -46 -57 -72 -28 -26
-48 -51 -44 -54 4 -4 -1 -13 -11 -20 -14 -11 4 -13 116 -14 l132 0 0 104 c0
111 -2 116 -56 116 -13 0 -24 5 -24 10 0 21 -28 9 -38 -17z"/>
<path d="M75 163 c-71 -15 -75 -21 -75 -95 l0 -69 150 2 c149 1 176 8 123 31
-28 12 -90 72 -120 116 -15 21 -34 25 -78 15z"/>
<path d="M475 10 c-13 -6 -15 -9 -5 -9 8 0 22 4 30 9 18 12 2 12 -25 0z"/>
</g>
</svg>
