<?xml version="1.0" standalone="no"?>
<!DOCTYPE svg PUBLIC "-//W3C//DTD SVG 20010904//EN"
 "http://www.w3.org/TR/2001/REC-SVG-20010904/DTD/svg10.dtd">
<svg version="1.0" xmlns="http://www.w3.org/2000/svg"
 width="400.000000pt" height="400.000000pt" viewBox="0 0 400.000000 400.000000"
 preserveAspectRatio="xMidYMid meet">
<metadata>
Created by potrace 1.11, written by Peter Selinger 2001-2013
</metadata>
<g transform="translate(0.000000,400.000000) scale(0.100000,-0.100000)"
fill="#000000" stroke="none">
<path d="M0 2000 l0 -2000 415 0 c228 0 415 4 415 9 0 4 -11 62 -25 127 -90
439 -95 457 -109 446 -6 -5 -69 -31 -141 -57 -72 -26 -156 -60 -187 -76 -37
-19 -59 -25 -64 -18 -3 6 -2 15 3 20 10 10 422 179 437 179 5 0 42 16 83 36
88 42 100 59 143 198 17 56 36 112 42 126 24 53 20 -11 -7 -128 -32 -137 -47
-172 -76 -172 -11 0 -35 -11 -53 -25 -18 -14 -38 -25 -43 -25 -6 0 -16 -7 -23
-15 -7 -8 -10 -15 -7 -15 19 0 448 -104 475 -116 42 -17 56 -52 72 -179 7 -55
18 -143 26 -195 8 -52 14 -101 14 -107 0 -10 268 -13 1305 -13 l1305 0 0 2000
0 2000 -887 0 c-544 0 -882 -4 -873 -9 8 -6 18 -7 23 -4 4 3 17 -3 27 -12 10
-9 22 -15 27 -12 9 6 31 -9 52 -36 7 -9 17 -54 22 -98 7 -73 6 -86 -13 -123
l-20 -41 25 23 c14 13 28 35 31 48 4 13 11 24 16 24 6 0 10 11 10 24 0 14 5
28 11 32 7 4 9 23 6 48 -5 39 -5 40 8 16 19 -33 19 -98 0 -116 -8 -9 -15 -23
-15 -33 0 -9 -18 -36 -40 -59 -22 -22 -40 -46 -40 -52 0 -5 -5 -10 -11 -10 -6
0 -18 -7 -27 -16 -22 -23 -26 -5 -13 56 13 62 14 145 1 115 -7 -15 -9 -10 -9
23 -1 23 -5 42 -10 42 -4 0 -14 21 -21 46 -7 26 -26 60 -42 77 -15 17 -28 35
-28 39 0 5 -497 8 -1105 8 l-1105 0 0 -2000z m2203 1928 c-5 -46 -50 -139 -70
-146 -7 -2 1 24 18 58 17 34 33 77 36 96 8 49 22 42 16 -8z m-198 7 c-16 -13
-43 -27 -60 -31 -16 -3 -43 -13 -60 -22 -27 -13 -38 -16 -83 -21 -7 0 -11 -5
-7 -10 3 -6 -3 -9 -13 -8 -25 1 -154 -85 -220 -148 -30 -27 -64 -56 -78 -63
-13 -7 -24 -15 -24 -18 0 -3 6 -2 13 2 6 4 10 5 7 1 -3 -3 -9 -6 -15 -7 -5 -1
-18 -6 -29 -12 -17 -9 -17 -8 -3 19 9 15 23 52 32 81 16 51 33 74 22 30 -5
-20 -3 -19 18 7 14 17 25 35 25 42 0 14 34 35 43 27 3 -4 21 4 39 17 l33 22
-37 -39 c-36 -38 -55 -73 -22 -40 24 24 80 66 88 66 4 0 4 -5 0 -12 -4 -7 13
5 39 27 47 39 52 42 120 51 22 3 62 16 90 28 98 44 127 48 82 11z m725 -45 c1
-10 3 -11 7 -2 11 27 23 9 24 -35 1 -41 2 -44 10 -23 6 17 7 7 3 -33 -3 -32
-12 -70 -20 -85 l-14 -27 -1 25 -1 25 -7 -25 c-7 -24 -8 -23 -19 15 -14 54
-32 144 -31 158 0 7 7 -1 15 -18 14 -29 15 -29 9 25 -6 51 -5 53 9 35 8 -11
16 -27 16 -35z m-161 -9 c6 -20 13 -61 17 -91 6 -45 9 -50 15 -30 6 22 7 21 8
-10 1 -26 4 -31 11 -20 14 21 13 -5 0 -31 -7 -11 -7 -19 -1 -19 13 0 -5 -63
-30 -103 -16 -27 -19 -29 -19 -11 0 11 6 34 14 50 17 34 19 48 16 89 -2 27 -3
26 -12 -13 -8 -38 -11 -41 -25 -27 -8 9 -17 38 -19 64 -2 27 -11 67 -19 91
-19 53 -19 71 0 45 14 -18 15 -16 12 22 -4 52 18 48 32 -6z m261 25 c11 -30
16 -173 6 -206 -5 -18 -1 -15 13 10 10 19 17 38 15 41 -2 4 3 9 11 13 8 3 15
2 15 -2 0 -12 -49 -108 -49 -98 -1 19 -30 -29 -31 -50 0 -11 -9 -38 -20 -60
l-19 -39 4 75 c2 41 4 77 5 80 2 3 2 9 1 14 -1 5 7 49 19 99 16 68 19 96 11
118 -12 36 5 40 19 5z m-700 9 c0 -10 -49 -112 -63 -130 -26 -34 -30 -9 -5 32
14 21 30 53 37 71 8 17 17 32 22 32 5 0 9 -2 9 -5z m117 -27 c-3 -8 -6 -5 -6
6 -1 11 2 17 5 13 3 -3 4 -12 1 -19z m268 12 c3 -5 1 -10 -4 -10 -6 0 -11 5
-11 10 0 6 2 10 4 10 3 0 8 -4 11 -10z m272 -22 c-3 -8 -6 -5 -6 6 -1 11 2 17
5 13 3 -3 4 -12 1 -19z m-1037 -72 c0 -2 -7 -7 -16 -10 -8 -3 -12 -2 -9 4 6
10 25 14 25 6z m907 -48 c-3 -8 -6 -5 -6 6 -1 11 2 17 5 13 3 -3 4 -12 1 -19z
m-636 -31 c-13 -12 -20 -15 -16 -7 14 26 28 41 33 35 3 -3 -5 -16 -17 -28z
m164 2 c-9 -17 -19 -28 -22 -25 -6 6 23 56 32 56 3 0 -2 -14 -10 -31z m767 18
c-6 -7 -13 -29 -16 -49 -2 -20 -9 -44 -14 -55 -5 -10 -12 -33 -15 -51 l-7 -33
26 28 c15 15 22 21 16 13 -21 -30 -32 -106 -21 -139 l11 -31 30 61 c22 44 33
57 39 48 5 -8 9 -9 9 -4 1 12 50 49 50 37 0 -4 -16 -26 -35 -48 -19 -21 -35
-47 -35 -56 0 -9 -4 -20 -10 -23 -6 -3 -8 2 -5 12 3 10 -1 5 -9 -12 -8 -16
-15 -38 -16 -47 0 -34 -20 -17 -31 27 -6 25 -15 48 -20 50 -4 3 -6 12 -2 20 3
8 1 15 -5 15 -14 0 -25 110 -12 125 6 7 9 18 8 23 -4 13 54 101 66 102 5 0 4
-6 -2 -13z m-478 -24 c-4 -16 -13 -35 -21 -43 -13 -13 -13 -12 -5 10 6 14 13
33 16 43 9 28 17 20 10 -10z m-1081 -12 c-22 -35 -78 -101 -86 -101 -15 0 10
45 47 85 48 51 67 59 39 16z m-107 -53 c-47 -58 -98 -141 -110 -180 -3 -10
-13 -18 -22 -18 -14 0 -14 3 -4 15 7 9 10 18 7 21 -12 12 -96 -37 -181 -105
-48 -39 -92 -71 -96 -71 -5 0 -20 -24 -34 -53 -14 -30 -33 -60 -43 -67 -14
-11 -15 -11 -6 -1 6 7 9 19 7 25 -3 7 9 41 26 76 17 36 28 55 25 43 -12 -43
16 -24 85 59 31 36 130 98 158 98 22 0 71 33 77 51 5 15 124 139 134 139 2 0
-8 -15 -23 -32z m1205 -35 c-8 -15 -10 -15 -11 -2 0 17 10 32 18 25 2 -3 -1
-13 -7 -23z m-111 -27 c0 -3 -4 -8 -10 -11 -5 -3 -10 -1 -10 4 0 6 5 11 10 11
6 0 10 -2 10 -4z m732 -18 c-7 -7 -12 -8 -12 -2 0 6 3 14 7 17 3 4 9 5 12 2 2
-3 -1 -11 -7 -17z m-1835 -17 c-1 -16 -5 -27 -9 -24 -5 2 -8 -1 -8 -8 0 -7 -2
-10 -5 -7 -5 5 14 68 21 68 2 0 2 -13 1 -29z m1823 -15 c0 -7 19 -10 57 -8 70
5 66 -4 -8 -18 -39 -8 -59 -18 -75 -38 l-22 -27 1 27 c1 16 5 28 8 28 3 0 11
11 17 24 8 17 7 27 -1 37 -10 11 -9 11 6 0 9 -7 17 -19 17 -25z m70 -66 c0 -5
-9 -15 -21 -22 -30 -19 -58 -69 -64 -116 -4 -37 -2 -42 15 -42 10 0 22 -5 25
-11 4 -6 13 -8 21 -5 14 5 102 -75 148 -136 19 -26 29 -53 33 -92 3 -31 9 -56
13 -56 4 0 13 -18 20 -40 8 -24 16 -36 21 -29 16 27 15 -81 -2 -152 -10 -41
-17 -89 -16 -107 l2 -31 28 26 c15 15 27 22 27 16 0 -6 -7 -16 -15 -23 -21
-18 -19 -35 3 -19 16 13 16 13 2 -6 -8 -11 -22 -28 -30 -37 -8 -10 -21 -33
-28 -51 -9 -23 -11 -25 -8 -7 5 24 4 24 -9 6 -14 -19 -15 -19 -15 -1 0 10 8
27 18 38 16 20 16 20 -2 13 -20 -7 -20 -6 -1 14 27 30 30 61 5 67 -11 3 -20 6
-20 7 0 1 10 22 22 47 12 24 21 58 21 74 -1 63 -11 112 -28 138 -9 15 -13 27
-9 27 5 0 2 6 -7 13 -19 14 -49 70 -49 90 0 20 -72 127 -82 121 -4 -3 -5 1 -2
9 7 19 -70 87 -99 87 -19 0 -17 -3 13 -21 38 -23 70 -56 70 -72 0 -5 -7 -4
-15 3 -16 13 -21 1 -6 -15 4 -6 11 -23 14 -40 5 -26 4 -25 -13 10 -10 22 -33
52 -51 67 -26 22 -34 37 -40 80 -4 29 -3 57 2 63 5 5 9 17 9 27 0 22 67 98 86
98 8 0 14 -4 14 -10z m-2423 -279 c-25 -62 -51 -192 -27 -136 8 19 9 19 9 -2
1 -13 -3 -23 -9 -23 -15 0 -11 -70 6 -115 9 -22 18 -51 21 -65 l6 -25 -21 25
c-32 41 -55 133 -50 210 3 53 11 82 38 134 36 69 55 66 27 -3z m26 -11 c-3
-12 -8 -19 -11 -16 -5 6 5 36 12 36 2 0 2 -9 -1 -20z m1176 -168 c2 -15 4 -51
4 -80 0 -31 4 -47 9 -40 4 7 8 21 8 30 0 12 5 15 16 11 10 -4 17 1 21 15 3 11
10 19 16 17 7 -3 25 15 41 38 30 42 50 38 23 -5 -17 -27 -24 -168 -8 -168 5 0
13 -21 16 -47 3 -27 9 -59 12 -73 l6 -25 7 25 c8 24 8 24 9 3 1 -32 14 -28 30
9 20 45 64 88 90 88 30 0 103 39 96 50 -4 6 0 10 7 10 7 0 26 11 42 25 16 14
39 25 50 25 12 0 32 3 46 5 14 3 -2 -5 -35 -17 -33 -13 -58 -28 -55 -33 3 -6
12 -9 20 -7 51 8 124 2 139 -12 10 -9 24 -16 33 -16 8 0 26 -9 40 -19 13 -11
40 -26 59 -34 21 -10 27 -16 16 -16 -34 -2 -7 -20 39 -27 25 -3 48 -12 51 -20
2 -7 22 -15 44 -19 21 -4 41 -10 44 -15 6 -10 -77 -5 -139 9 -28 7 -92 11
-142 10 l-93 -2 39 -41 c22 -22 42 -53 46 -69 9 -42 -2 -44 -16 -3 -8 24 -26
45 -57 65 -26 17 -52 31 -59 31 -20 0 -119 -34 -125 -43 -3 -4 -13 -9 -22 -11
-22 -3 -57 -36 -57 -53 0 -8 -9 -22 -20 -31 -23 -19 -32 -68 -12 -64 6 1 12
-2 12 -8 0 -5 6 -10 14 -10 8 0 16 -7 20 -15 7 -20 91 -56 111 -49 8 3 29 -6
46 -20 17 -14 34 -26 39 -26 4 0 15 16 24 35 21 44 29 45 21 2 -5 -24 -1 -38
14 -56 12 -13 21 -31 21 -40 0 -14 2 -14 10 -1 8 13 10 12 11 -5 1 -18 2 -18
6 -2 3 11 11 16 19 13 10 -4 12 -2 8 5 -4 7 -1 10 7 7 8 -3 16 -18 19 -33 3
-16 10 -29 15 -29 27 0 44 -134 28 -229 -5 -34 -8 -38 -30 -32 -30 7 -97 -10
-114 -31 -11 -13 -9 -14 13 -9 28 7 44 -7 31 -27 -15 -25 -11 -38 13 -38 22 0
24 -4 20 -34 -2 -19 -9 -44 -16 -55 -19 -36 -111 -102 -197 -142 -85 -40 -100
-51 -60 -43 12 3 -9 -7 -48 -22 -84 -31 -84 -32 -95 -80 -8 -33 -6 -41 16 -61
17 -15 37 -23 62 -23 l37 0 -30 26 -30 25 27 -5 c21 -5 28 -2 33 14 10 31 35
39 110 34 114 -7 144 -6 155 7 3 4 15 9 27 13 17 6 20 3 17 -12 -5 -16 2 -18
60 -18 36 0 66 3 66 8 0 4 7 8 16 8 8 0 12 -5 9 -10 -3 -5 1 -10 9 -10 29 0
19 -39 -11 -46 -46 -10 -49 -12 -18 -13 17 -1 35 -9 41 -19 14 -21 6 -82 -10
-82 -23 0 -17 -57 9 -88 48 -57 52 -100 19 -240 -11 -47 -38 -99 -111 -215
-53 -83 -110 -175 -128 -203 -17 -29 -39 -59 -48 -68 -8 -9 -37 -58 -63 -109
-74 -145 -138 -223 -216 -263 -44 -22 -61 -24 -205 -27 l-158 -2 -65 32 c-80
40 -141 115 -170 209 -20 68 -41 106 -74 140 -12 12 -28 32 -36 44 -8 13 -24
35 -36 49 -34 44 -145 231 -189 321 -83 166 -100 285 -53 352 10 15 22 51 25
80 3 29 11 57 17 61 8 6 7 10 -1 14 -7 2 -13 8 -13 13 0 12 63 35 67 24 10
-27 24 -36 61 -37 22 -1 38 -6 35 -10 -3 -5 5 -7 18 -5 34 5 32 21 -4 38 -17
8 -30 20 -27 25 3 6 9 9 13 7 5 -1 5 3 1 9 -12 21 17 26 117 22 55 -2 103 -4
107 -5 4 -1 14 2 24 6 24 11 71 3 76 -13 3 -10 0 -12 -13 -7 -11 4 -22 0 -31
-11 -10 -15 -10 -19 4 -24 13 -5 10 -10 -16 -23 -19 -10 -32 -19 -30 -21 2 -3
34 1 71 7 54 9 66 14 63 27 -3 9 -10 35 -16 59 -9 36 -18 46 -55 64 -24 12
-42 25 -39 30 3 5 -32 26 -79 47 -50 23 -92 50 -105 67 -12 16 -27 34 -33 39
-6 6 -20 20 -32 32 -13 12 -43 24 -70 28 -26 4 -47 11 -47 16 0 5 14 18 31 28
32 20 31 24 -13 35 -25 6 -28 11 -28 50 0 24 6 62 14 84 10 27 11 43 4 50 -16
16 1 67 36 106 19 20 31 36 28 36 -4 0 9 14 28 31 28 26 35 29 44 16 7 -9 22
-13 42 -10 36 6 76 -23 52 -38 -10 -7 -9 -9 5 -9 12 0 17 8 17 25 0 56 77 132
104 105 6 -6 26 -10 46 -10 32 0 36 4 54 47 24 58 49 83 81 83 22 0 24 2 14
24 -7 14 -22 27 -35 30 -13 4 -24 11 -24 16 0 6 -9 10 -19 10 -11 0 -23 4 -26
10 -4 6 1 7 12 4 16 -5 16 -4 -2 10 -10 9 -24 15 -29 13 -6 -2 -19 7 -29 20
-10 13 -24 23 -32 23 -7 0 -16 7 -19 16 -5 14 -4 15 9 4 12 -10 15 -10 15 3 0
46 -86 155 -113 144 -8 -3 -23 0 -32 7 -15 11 -13 14 22 29 21 10 52 16 69 15
31 -3 86 -42 97 -69 3 -8 6 -4 7 11 0 22 2 23 11 7 14 -24 26 -14 33 30 16 90
69 183 103 183 7 0 13 7 13 15 0 26 15 16 19 -13z m87 -19 c-10 -10 -19 5 -10
18 6 11 8 11 12 0 2 -7 1 -15 -2 -18z m-318 -12 c3 -8 -1 -12 -9 -9 -7 2 -15
10 -17 17 -3 8 1 12 9 9 7 -2 15 -10 17 -17z m-762 -87 c-10 -14 -20 -23 -23
-21 -6 6 30 57 36 51 2 -2 -4 -15 -13 -30z m779 -14 c3 -5 -1 -10 -10 -10 -9
0 -13 5 -10 10 3 6 8 10 10 10 2 0 7 -4 10 -10z m899 -16 c9 -24 2 -26 -12 -4
-7 11 -8 20 -3 20 5 0 12 -7 15 -16z m-1874 -88 c0 -6 -7 -1 -15 10 -8 10 -15
23 -15 28 0 6 7 1 15 -10 8 -10 15 -23 15 -28z m1037 22 c-3 -8 -6 -5 -6 6 -1
11 2 17 5 13 3 -3 4 -12 1 -19z m1332 -138 c0 -45 -3 -59 -9 -45 -5 11 -9 49
-9 85 0 45 3 59 9 45 5 -11 9 -49 9 -85z m-1873 33 c-19 -20 -22 -31 -15 -44
6 -12 5 -19 -3 -21 -6 -2 -11 -18 -10 -36 0 -17 -4 -34 -9 -37 -5 -4 -9 -1 -9
5 0 6 -5 8 -10 5 -7 -4 -6 -13 1 -26 7 -15 6 -35 -6 -77 -9 -31 -20 -62 -23
-67 -4 -6 1 -2 12 10 18 20 18 20 12 -10 -3 -16 -8 -49 -11 -72 -2 -23 -9 -61
-15 -85 -12 -54 -12 -58 0 -58 6 0 11 17 11 38 l1 37 8 -40 c9 -45 2 -104 -10
-84 -5 7 -6 18 -3 26 3 7 0 13 -6 13 -7 0 -11 -21 -11 -52 1 -47 2 -51 14 -35
38 50 29 -236 -9 -310 -13 -25 -4 -84 15 -108 5 -6 5 -17 0 -25 -5 -7 -4 -24
2 -39 17 -46 11 -420 -8 -440 -2 -2 -10 12 -18 31 -25 59 -39 204 -34 359 3
124 2 144 -10 133 -26 -27 -102 7 -128 57 -16 32 -19 93 -4 84 6 -3 10 4 10
16 0 18 -3 20 -12 11 -8 -8 -16 -6 -31 11 -29 32 -42 70 -66 192 -12 61 -26
129 -32 153 -12 55 -12 129 1 137 6 4 10 -10 10 -35 0 -23 5 -61 11 -86 9 -36
14 -42 25 -33 12 10 11 17 -6 46 -23 39 -27 79 -7 67 9 -6 9 -4 -1 8 -14 17
-3 31 14 20 6 -4 19 -22 29 -39 11 -18 22 -33 26 -33 4 0 10 -7 13 -16 4 -9 2
-13 -5 -8 -18 11 0 -36 32 -83 37 -54 37 -78 -1 -98 -19 -10 -30 -23 -30 -37
0 -11 13 -43 30 -70 16 -26 30 -53 30 -58 0 -17 -18 -11 -23 8 -4 16 -5 16 -6
-1 -1 -22 26 -34 42 -18 17 17 27 13 27 -11 0 -13 13 -33 30 -47 23 -18 30
-31 30 -57 0 -19 4 -34 9 -34 5 0 9 26 8 58 0 31 6 97 13 146 10 69 10 97 1
122 -22 60 -29 147 -16 198 6 22 5 27 -5 21 -10 -6 -12 -3 -8 13 4 16 2 19
-10 15 -11 -5 -13 -3 -7 8 5 7 8 26 7 41 -2 20 2 28 14 28 14 0 14 3 4 15 -10
12 -10 21 -1 41 6 14 11 35 11 47 0 12 9 37 20 55 24 39 25 49 5 32 -24 -20
-29 -4 -8 27 11 15 23 36 26 46 4 9 10 17 15 17 5 0 7 11 5 24 -5 25 -1 27 65
35 7 0 2 -11 -12 -26z m-489 -15 c-3 -7 -5 -2 -5 12 0 14 2 19 5 13 2 -7 2
-19 0 -25z m2017 -70 c8 -7 38 -35 68 -62 29 -26 65 -59 79 -72 15 -14 43 -27
63 -31 44 -7 37 -23 -10 -23 -39 0 -120 33 -127 52 -3 8 -6 8 -6 2 -1 -6 11
-24 25 -39 15 -16 24 -35 21 -46 -3 -10 2 -20 10 -23 8 -3 12 -10 8 -16 -3 -5
1 -24 10 -41 9 -17 12 -28 6 -25 -7 4 -12 -2 -13 -16 -1 -22 -4 -37 -8 -48 -1
-3 -3 -12 -5 -20 -2 -8 -6 -23 -10 -32 -4 -10 -3 -18 2 -18 18 0 11 -40 -13
-65 -26 -29 -32 -50 -10 -42 11 4 12 -2 6 -29 -5 -19 -4 -32 1 -28 5 3 9 -7
10 -23 0 -52 11 -118 22 -138 9 -17 12 -10 23 47 13 72 24 97 49 118 12 10 19
10 27 2 14 -14 -7 -93 -35 -128 -10 -14 -17 -27 -15 -30 9 -9 38 8 38 22 0 8
5 14 10 14 6 0 10 7 10 16 0 10 6 14 14 11 9 -4 17 2 21 13 3 10 16 25 28 33
43 29 77 66 77 86 0 14 -13 24 -45 37 -47 18 -58 41 -30 64 8 7 15 21 15 30 0
10 3 20 8 22 4 2 17 16 29 31 13 17 24 23 28 17 4 -6 2 -16 -4 -23 -7 -9 -5
-13 7 -14 9 -1 26 -3 36 -5 17 -2 23 7 37 60 18 70 9 90 -25 51 -12 -14 -30
-31 -41 -39 -17 -12 -16 -10 3 11 12 14 20 28 17 31 -4 3 5 14 18 25 13 10 27
29 31 41 4 12 16 22 26 22 17 0 17 -4 4 -72 -8 -40 -16 -79 -19 -87 -3 -7 -12
-58 -20 -112 -14 -89 -21 -109 -70 -194 -47 -81 -55 -103 -55 -146 0 -40 -5
-54 -24 -72 -25 -24 -98 -48 -131 -44 -11 1 -20 -2 -20 -8 1 -5 5 -63 9 -128
12 -166 -14 -357 -48 -357 -21 0 -33 181 -23 322 3 37 2 70 -3 73 -10 6 -24
80 -21 120 l1 30 -16 -30 c-9 -16 -17 -34 -18 -40 -3 -16 -19 -39 -38 -53 -14
-11 -22 -11 -51 3 -19 9 -37 25 -40 35 -5 19 -65 50 -97 50 -24 0 -120 -41
-120 -51 0 -17 21 -20 36 -5 21 21 36 20 32 -1 -4 -23 -84 -64 -112 -58 -12 2
-39 7 -60 10 -48 8 -33 21 35 30 26 4 50 13 53 20 3 9 0 12 -10 8 -29 -11 -13
5 24 24 56 29 106 57 112 63 3 3 17 11 32 19 15 8 30 22 33 32 3 9 16 20 28
23 17 5 19 8 8 15 -10 6 -3 12 24 21 22 7 40 9 44 3 3 -5 22 -16 41 -25 50
-24 62 -10 45 50 -27 91 -18 332 12 332 15 0 10 33 -9 57 -5 7 -7 17 -3 24 4
6 -2 24 -14 40 -25 33 -29 58 -7 40 11 -10 14 -7 12 14 0 14 -6 23 -12 21 -6
-2 -17 18 -26 45 -12 41 -12 51 -1 60 10 9 17 8 28 -1 9 -7 18 -10 21 -8 3 3
-8 15 -23 27 -15 12 -48 38 -72 59 -24 20 -53 43 -65 50 -18 12 -14 13 36 8
32 -2 64 -11 72 -18z m-1968 -118 c5 -23 4 -22 -16 7 -12 18 -23 54 -25 80
l-5 48 21 -55 c11 -30 23 -66 25 -80z m2171 94 c-3 -3 -12 -4 -19 -1 -8 3 -5
6 6 6 11 1 17 -2 13 -5z m181 -45 c-6 -4 -8 -12 -4 -18 5 -7 1 -9 -11 -4 -10
3 -15 3 -11 -2 11 -11 -25 -35 -37 -25 -5 4 -19 10 -30 13 -19 4 -19 5 1 6 12
0 27 8 34 16 7 8 19 15 27 15 8 0 12 4 9 9 -9 13 18 20 26 7 4 -6 2 -13 -4
-17z m182 -61 c0 -7 -14 -28 -30 -47 -17 -18 -30 -29 -30 -23 0 6 6 17 13 24
8 7 19 23 26 36 13 25 21 28 21 10z m-2527 -49 c4 -16 3 -18 -9 -8 -7 6 -11
15 -8 20 8 13 11 11 17 -12z m281 -474 c12 -48 16 -104 7 -109 -24 -15 -48 56
-42 131 2 20 29 3 35 -22z m242 -145 c5 0 27 -20 49 -44 22 -24 56 -51 75 -59
19 -9 46 -23 60 -31 14 -8 45 -24 70 -36 l45 -20 -40 6 c-22 3 -72 19 -112 35
l-71 30 -40 -20 c-22 -11 -46 -26 -54 -34 -20 -20 -80 -27 -101 -12 -24 17
-34 80 -16 101 11 14 10 15 -7 12 -38 -6 -18 26 41 68 58 40 61 41 77 23 9
-11 20 -19 24 -19z m162 -186 c17 -12 26 -13 37 -4 8 7 15 7 19 1 4 -5 14 -10
24 -10 30 -1 82 -13 87 -21 2 -4 -18 -12 -45 -17 -54 -11 -106 1 -141 33 -35
32 -21 46 19 18z m742 -93 c0 -4 -9 -7 -20 -8 -19 -2 -26 8 -14 20 7 7 34 -2
34 -12z m-869 -28 c13 -15 12 -15 -8 -4 -24 12 -29 21 -14 21 5 0 15 -7 22
-17z m914 7 c-3 -5 -12 -7 -20 -3 -21 7 -19 13 6 13 11 0 18 -4 14 -10z m776
-556 c16 -60 33 -133 38 -162 9 -63 18 -72 94 -102 32 -12 56 -24 54 -26 -5
-5 -127 33 -143 43 -29 20 -45 74 -83 283 -6 30 -13 66 -17 80 -6 23 -5 24 10
9 10 -9 31 -65 47 -125z m-2011 122 c0 -3 -4 -8 -10 -11 -5 -3 -10 -1 -10 4 0
6 5 11 10 11 6 0 10 -2 10 -4z m2297 -238 c-2 -24 -4 -5 -4 42 0 47 2 66 4 43
2 -24 2 -62 0 -85z m-100 91 c5 -5 8 -21 5 -35 -3 -19 -7 -22 -13 -12 -7 11
-11 10 -19 -2 -5 -8 -10 -11 -10 -6 0 5 -6 4 -13 -2 -10 -9 -13 -4 -13 21 0
18 5 35 11 39 15 11 39 10 52 -3z m57 -24 c-4 -9 0 -15 7 -15 9 -1 8 -4 -3
-11 -11 -6 -24 -7 -34 -1 -14 8 -14 11 7 26 29 20 30 20 23 1z m-42 -70 c-5
-30 -28 -33 -35 -6 -6 23 0 31 23 31 13 0 16 -6 12 -25z m-108 -36 c-12 -20
-20 -7 -16 23 5 31 5 31 13 9 5 -12 7 -27 3 -32z m50 10 c-3 -5 -10 -7 -15 -3
-5 3 -7 10 -3 15 3 5 10 7 15 3 5 -3 7 -10 3 -15z m116 -2 c8 -3 0 -6 -18 -6
-28 -1 -31 1 -20 13 7 8 15 10 18 6 3 -4 12 -10 20 -13z m-85 -27 c3 -5 1 -10
-4 -10 -6 0 -11 5 -11 10 0 6 2 10 4 10 3 0 8 -4 11 -10z m115 -8 c0 -4 -18
-6 -40 -4 -22 2 -40 6 -40 8 0 2 18 4 40 4 22 0 40 -3 40 -8z m-1854 -467 c15
-20 24 -38 20 -42 -7 -7 -76 56 -76 69 0 20 31 5 56 -27z m1183 -60 c-2 -12
-90 -47 -98 -39 -3 3 3 11 14 17 11 7 29 17 40 24 23 13 47 12 44 -2z m-109
-49 c0 -3 -4 -8 -10 -11 -5 -3 -10 -1 -10 4 0 6 5 11 10 11 6 0 10 -2 10 -4z"/>
<path d="M3288 3125 c-6 -6 18 -94 28 -104 8 -8 -7 92 -15 102 -4 4 -10 5 -13
2z"/>
<path d="M1901 2977 c-17 -42 -13 -67 5 -28 8 19 13 39 10 45 -2 6 -9 -2 -15
-17z"/>
<path d="M1931 2944 c0 -11 3 -14 6 -6 3 7 2 16 -1 19 -3 4 -6 -2 -5 -13z"/>
<path d="M2473 2853 c15 -2 37 -2 50 0 12 2 0 4 -28 4 -27 0 -38 -2 -22 -4z"/>
<path d="M2106 2681 c-4 -7 -5 -15 -2 -18 9 -9 19 4 14 18 -4 11 -6 11 -12 0z"/>
<path d="M2644 1489 c-8 -13 13 -29 38 -29 29 0 31 19 3 30 -33 12 -32 12 -41
-1z"/>
<path d="M2510 1439 l-45 -20 68 5 c75 6 97 14 76 27 -20 13 -49 9 -99 -12z"/>
<path d="M2107 1404 c-15 -8 -28 -22 -28 -32 -2 -27 2 -47 12 -52 4 -3 7 -28
6 -55 -2 -49 -2 -50 27 -48 36 3 72 33 54 45 -10 6 -10 8 1 8 9 0 10 4 3 13
-5 6 -16 38 -23 70 -7 32 -15 60 -18 62 -3 2 -18 -3 -34 -11z"/>
<path d="M1867 1403 c-3 -4 -8 -29 -12 -56 -4 -26 -11 -50 -16 -53 -20 -12 -8
-42 21 -54 24 -10 32 -10 43 2 14 14 31 118 19 118 -4 0 -12 10 -17 22 -11 23
-30 34 -38 21z"/>
<path d="M2161 1161 c-25 -35 -27 -64 -4 -82 15 -12 16 -12 10 4 -4 10 -3 16
2 13 12 -8 53 63 47 80 -9 23 -33 16 -55 -15z"/>
<path d="M1800 1166 c0 -8 4 -17 9 -20 5 -3 7 -14 5 -24 -5 -20 12 -44 42 -60
19 -10 23 -9 28 13 8 32 -3 77 -23 92 -22 17 -61 16 -61 -1z"/>
<path d="M1534 1018 c7 -18 23 -53 34 -78 12 -25 33 -79 48 -120 48 -135 112
-240 147 -240 8 0 25 -8 38 -18 48 -36 95 -44 207 -37 180 10 280 42 338 106
42 47 175 400 153 407 -5 2 -22 -4 -37 -14 -44 -28 -162 -116 -162 -121 0 -2
5 -1 10 2 6 4 10 -8 10 -29 0 -35 -13 -48 -23 -23 -7 17 -27 -11 -27 -38 0
-16 2 -17 10 -5 13 21 19 10 13 -24 -3 -16 -14 -31 -24 -33 -11 -3 -19 -11
-19 -19 0 -20 -22 -64 -32 -64 -5 0 -20 -13 -33 -29 -32 -37 -93 -54 -203 -55
-85 -1 -89 0 -130 32 -23 19 -42 38 -42 44 0 5 -9 17 -20 26 -11 10 -21 33
-23 55 -4 36 -17 65 -17 37 0 -11 -3 -11 -12 -2 -10 10 -10 15 -1 20 15 10 4
62 -13 62 -18 0 -35 42 -22 51 6 4 -15 26 -46 50 -133 103 -144 107 -122 57z"/>
<path d="M2101 1014 c-12 -27 -6 -49 10 -39 5 4 9 15 9 26 0 10 5 19 11 19 5
0 7 5 4 10 -10 17 -21 11 -34 -16z"/>
<path d="M2269 883 c-13 -16 -12 -17 4 -4 16 13 21 21 13 21 -2 0 -10 -8 -17
-17z"/>
<path d="M1786 771 c-3 -5 1 -11 9 -15 9 -3 15 0 15 9 0 16 -16 20 -24 6z"/>
<path d="M2192 749 c-19 -30 -11 -32 11 -3 10 13 14 24 10 24 -5 0 -14 -9 -21
-21z"/>
<path d="M1820 742 c0 -10 54 -42 73 -42 10 0 13 7 10 20 -4 16 -8 18 -19 9
-11 -9 -20 -7 -39 5 -14 9 -25 13 -25 8z"/>
<path d="M2107 716 c-3 -8 2 -16 13 -19 23 -6 35 19 14 27 -21 8 -21 8 -27 -8z"/>
<path d="M2000 694 c0 -8 5 -12 10 -9 6 4 8 11 5 16 -9 14 -15 11 -15 -7z"/>
<path d="M1925 690 c3 -5 8 -10 11 -10 2 0 4 5 4 10 0 6 -5 10 -11 10 -5 0 -7
-4 -4 -10z"/>
<path d="M890 2293 c0 -6 8 -17 18 -24 16 -13 16 -13 2 6 -8 11 -16 22 -17 24
-2 2 -3 0 -3 -6z"/>
<path d="M2856 1763 c10 -40 14 -41 14 -5 0 18 -5 32 -10 32 -6 0 -8 -11 -4
-27z"/>
<path d="M3115 2520 c-3 -5 -1 -10 4 -10 6 0 11 5 11 10 0 6 -2 10 -4 10 -3 0
-8 -4 -11 -10z"/>
<path d="M3207 924 c-4 -4 -4 -10 -1 -15 6 -10 34 0 34 12 0 10 -24 12 -33 3z"/>
<path d="M2330 3940 c6 -11 16 -20 22 -20 6 0 3 9 -7 20 -10 11 -20 20 -22 20
-2 0 1 -9 7 -20z"/>
<path d="M2306 3927 c3 -10 9 -15 12 -12 3 3 0 11 -7 18 -10 9 -11 8 -5 -6z"/>
<path d="M2321 3868 c1 -18 2 -19 6 -5 2 9 9 15 14 12 5 -4 9 -1 9 4 0 6 -7
11 -15 11 -9 0 -15 -9 -14 -22z"/>
<path d="M750 580 c-10 -7 -11 -10 -2 -10 9 0 11 -12 7 -42 -4 -28 0 -49 11
-66 9 -13 11 -21 5 -18 -16 10 -14 2 10 -43 11 -21 22 -61 24 -88 2 -26 8 -62
14 -80 7 -23 6 -33 -2 -36 -9 -3 -8 -11 2 -28 8 -13 21 -36 29 -51 7 -16 17
-28 21 -28 4 0 16 -19 28 -43 l20 -42 63 -3 c49 -2 61 0 53 10 -19 25 -36 97
-30 127 5 23 3 31 -7 31 -8 0 -16 -6 -19 -12 -2 -8 -10 -1 -17 15 -11 22 -20
27 -48 27 -28 0 -33 -3 -27 -17 4 -13 3 -15 -5 -7 -6 6 -8 19 -4 29 6 15 15
17 67 11 60 -6 60 -6 42 14 -10 12 -25 18 -33 15 -10 -3 -12 0 -8 10 7 20 -4
19 -18 -1 -7 -9 -30 -17 -53 -19 -39 -3 -41 -2 -31 15 9 14 8 23 -4 42 -13 19
-15 45 -13 111 3 65 0 89 -11 98 -8 6 -15 8 -16 3 0 -5 -4 11 -7 35 -6 47 -16
57 -41 41z m56 -157 c-10 -10 -19 5 -10 18 6 11 8 11 12 0 2 -7 1 -15 -2 -18z
m14 -56 c0 -5 -4 -5 -10 -2 -5 3 -10 14 -10 23 0 15 2 15 10 2 5 -8 10 -19 10
-23z"/>
<path d="M808 573 c6 -2 18 -2 25 0 6 3 1 5 -13 5 -14 0 -19 -2 -12 -5z"/>
<path d="M910 490 c0 -5 5 -10 10 -10 6 0 10 5 10 10 0 6 -4 10 -10 10 -5 0
-10 -4 -10 -10z"/>
<path d="M951 484 c0 -11 3 -14 6 -6 3 7 2 16 -1 19 -3 4 -6 -2 -5 -13z"/>
<path d="M884 417 c3 -10 6 -28 6 -39 0 -14 6 -19 23 -16 14 2 22 10 22 23 0
12 -6 19 -14 17 -7 -1 -20 5 -28 15 -14 17 -14 17 -9 0z"/>
<path d="M950 369 c0 -5 5 -7 10 -4 6 3 10 8 10 11 0 2 -4 4 -10 4 -5 0 -10
-5 -10 -11z"/>
<path d="M980 370 c0 -5 5 -10 11 -10 5 0 7 5 4 10 -3 6 -8 10 -11 10 -2 0 -4
-4 -4 -10z"/>
<path d="M1070 115 c-10 -13 -9 -15 9 -15 11 0 21 4 21 9 0 18 -18 21 -30 6z"/>
</g>
</svg>
